Coordinates
version=1
nRows=16
nColumns=36
inDegrees=yes

Units are S.I. units (second, meters, Newtons, ...)
If the header above contains a line with 'inDegrees', this indicates whether rotational values are in degrees (yes) or radians (no).

endheader
time	pelvis_tilt	pelvis_list	pelvis_rotation	pelvis_tx	pelvis_ty	pelvis_tz	hip_flexion_r	hip_adduction_r	hip_rotation_r	knee_angle_r	knee_angle_r_beta	ankle_angle_r	subtalar_angle_r	mtp_angle_r	hip_flexion_l	hip_adduction_l	hip_rotation_l	knee_angle_l	knee_angle_l_beta	ankle_angle_l	subtalar_angle_l	mtp_angle_l	lumbar_extension	lumbar_bending	lumbar_rotation	arm_flex_r	arm_add_r	arm_rot_r	elbow_flex_r	pro_sup_r	arm_flex_l	arm_add_l	arm_rot_l	elbow_flex_l	pro_sup_l
      2.66000000	    -19.97323145	     -2.22183289	      1.62567659	     -0.30194160	      0.69201051	     -0.58498149	     75.40169659	     -5.36897854	      1.60461627	     89.72957424	      1.56607651	     26.91207938	    -20.41999127	     -7.39377379	     77.38553298	     -1.28423020	      7.45556250	     89.14660316	      1.55590174	     29.53856595	     -8.90531375	     -7.39377379	    -33.44927175	      3.53704668	     -5.12707576	     18.56032393	    -14.77633794	      6.21557264	     39.68164719	    102.04925137	     20.83290081	    -12.72084127	     -9.27397313	     42.38336746	     75.84856783
      2.67000000	    -19.15456221	     -2.15977656	      1.72146329	     -0.29755564	      0.70324934	     -0.58508235	     73.12392829	     -5.42341871	      1.38684293	     88.06191887	      1.53697043	     26.16338098	    -20.43110454	     -7.39517666	     75.12719231	     -1.12342551	      7.48998555	     87.53173160	      1.52771692	     28.74164150	     -9.12646242	     -7.39517666	    -32.51372583	      3.33230072	     -5.87578910	     19.92252189	    -14.84409627	      5.23668424	     44.00238276	    101.95892273	     22.15906489	    -13.20948125	     -8.25007011	     46.95414888	     76.21225641
      2.68000000	    -18.89800200	     -2.04101186	      1.53294019	     -0.29294473	      0.71367343	     -0.58475125	     71.56379816	     -5.34470526	      1.18077148	     86.37670261	      1.50755786	     25.11252431	    -21.00819929	     -7.39914911	     73.50009379	     -1.53690425	      6.94542133	     85.88226431	      1.49892828	     27.86324259	     -9.82264310	     -7.39914911	    -30.96587235	      2.95421609	     -6.21501105	     20.34390031	    -14.79092443	      2.65053555	     50.64190867	    101.27647918	     22.66091669	    -13.54222370	     -7.37332071	     53.68366627	     76.04546294
      2.69000000	    -18.17402212	     -1.96658076	      1.33290611	     -0.28809211	      0.72544013	     -0.58425464	     69.33476465	     -5.16916956	      0.88585796	     84.45690715	      1.47405111	     24.05529083	    -21.48303038	     -7.42950379	     71.17353615	     -2.03175977	      6.46869472	     83.98052472	      1.46573666	     27.23519210	     -9.76852913	     -7.42950379	    -29.84176565	      2.61191185	     -6.61748972	     21.58319841	    -15.24574875	      2.53551778	     57.09479767	     96.96828620	     23.40273598	    -14.34703033	     -5.56632798	     60.99694323	     68.42540641
      2.70000000	    -17.49837699	     -2.02483891	      1.06158244	     -0.28297127	      0.73741180	     -0.58341455	     66.99054810	     -4.72562595	      0.57993465	     82.32354196	      1.43681686	     23.23605001	    -21.99666146	     -7.43152437	     68.80674008	     -2.58945137	      6.15981514	     81.94983903	      1.43029451	     26.73642107	     -9.88859694	     -7.43152437	    -28.59600999	      2.38517776	     -7.12938850	     23.23212885	    -15.75273693	      2.70842925	     63.30470581	     97.45026831	     23.73768333	    -15.25243087	     -4.49168083	     68.29780337	     69.18894811
      2.71000000	    -16.82277903	     -2.25456169	      0.58928719	     -0.27767814	      0.74972861	     -0.58195056	     64.51415449	     -3.94029037	      0.28067472	     79.93417264	      1.39511450	     22.51090953	    -22.27814913	     -7.43252610	     66.39920372	     -3.34357618	      6.09461919	     79.90885581	      1.39467264	     26.17048731	     -9.91390294	     -7.43252610	    -27.27779488	      2.20529535	     -7.28321975	     25.15097658	    -16.55145471	      3.36792615	     69.53975228	     97.94310050	     24.33189751	    -16.32995070	     -3.10177480	     75.60063759	     70.08017436
      2.72000000	    -16.38884488	     -2.50168707	     -0.00687512	     -0.27227570	      0.76217639	     -0.58019129	     62.23124485	     -3.01871188	      0.12814238	     77.31106384	      1.34933261	     20.84214555	    -23.49183120	     -7.43680792	     64.13340112	     -4.20534880	      5.97460294	     77.66627236	      1.35553217	     25.44802279	    -10.21748694	     -7.43680792	    -25.68711481	      2.08124423	     -7.70982997	     27.66622062	    -17.16943193	      4.62795145	     75.66728512	     98.17829330	     24.55530311	    -17.35813119	     -2.93421689	     83.62736952	     71.06658235
      2.73000000	    -15.78512975	     -2.59747540	     -0.48926786	     -0.26663066	      0.77558738	     -0.57898108	     59.63260599	     -2.43738943	      0.12939328	     74.52703596	      1.30074216	     20.16314087	    -23.11434430	     -7.43793397	     61.47576085	     -4.85738156	      5.67049737	     75.09862668	      1.31071830	     24.82531526	    -10.12812938	     -7.43793397	    -24.21041793	      1.85106611	     -7.76565706	     30.16847324	    -18.29682712	      5.81321597	     82.00555432	     98.55503599	     25.68050762	    -18.30675377	     -1.65611376	     90.75576119	     71.94157460
      2.74000000	    -15.19267286	     -2.60193947	     -0.74745215	     -0.26083017	      0.78967726	     -0.57865447	     56.92752548	     -2.21642523	      0.11617649	     71.54422865	      1.24868235	     19.23197436	    -22.68059439	     -7.43879982	     58.70286355	     -5.14994543	      5.40094135	     72.22537131	      1.26057053	     23.95889741	    -10.06012993	     -7.43879982	    -22.69537911	      1.72412469	     -8.03611528	     33.05807851	    -19.50042140	      7.05177734	     88.26447963	     98.90262444	     27.02062745	    -19.14404720	     -0.44662830	     97.73225643	     72.78823456
      2.75000000	    -14.74739379	     -2.62293263	     -0.94288255	     -0.25491822	      0.80429316	     -0.57857602	     54.26311247	     -2.07780400	      0.01250804	     68.29740380	      1.19201457	     18.09326606	    -22.25643858	     -7.43955959	     56.00586585	     -5.40706929	      5.10374588	     69.09059440	      1.20585835	     22.85745178	     -9.99609977	     -7.43955959	    -20.97481678	      1.70535565	     -8.33389782	     36.28444957	    -20.68912375	      8.27585824	     94.28593373	     99.20125668	     28.51444069	    -19.95095201	      0.77903293	    104.39076281	     73.62096972
      2.76000000	    -14.29536122	     -2.60527673	     -1.17458992	     -0.24900134	      0.81975766	     -0.57827463	     51.52546264	     -1.92093759	     -0.05533604	     64.82323289	      1.13137885	     16.49084412	    -22.08218746	     -7.44055108	     53.17878541	     -5.67465212	      4.69545107	     65.65806772	      1.14594946	     21.33056397	    -10.17737110	     -7.44055108	    -19.31545632	      1.67693254	     -8.59591015	     39.91400831	    -21.78622629	      9.67046919	    100.13834795	     99.37090783	     30.24498577	    -20.87188463	      1.92399515	    110.89071866	     74.49376183
      2.77000000	    -13.95789966	     -2.51446898	     -1.41520680	     -0.24287915	      0.83602419	     -0.57777343	     48.80861088	     -1.86245181	     -0.12218674	     61.07169318	      1.06590213	     14.56661323	    -21.54518632	     -7.44141891	     50.28601434	     -5.94704428	      4.10424887	     61.80334310	      1.07867183	     19.47544313	    -10.08132565	     -7.44141891	    -17.41783917	      1.54334632	     -8.71033494	     43.64710740	    -22.89846403	     11.16582434	    105.35353678	     99.50045215	     32.21560580	    -21.81091568	      3.41580750	    116.62357862	     75.29007097
      2.78000000	    -13.58523715	     -2.41270791	     -1.64617633	     -0.23666286	      0.85310215	     -0.57732400	     45.92664626	     -1.84238497	     -0.17208188	     57.01371661	      0.99507707	     12.17642989	    -21.09648720	     -7.44251914	     47.20598158	     -6.19050400	      3.45631236	     57.57480996	      1.00487000	     17.11298134	    -10.12898416	     -7.44251914	    -15.56219400	      1.43513915	     -8.67744039	     47.56145242	    -24.10819907	     12.77085681	    110.15828932	     99.47783891	     34.41664220	    -22.69464554	      5.02615647	    121.72164152	     76.03812178
      2.79000000	    -13.29960404	     -2.40240523	     -1.85058150	     -0.23038629	      0.87072812	     -0.57710860	     42.97838831	     -1.82243758	     -0.37360636	     52.60532591	      0.91813614	      9.38726644	    -20.32920136	     -7.44363884	     44.11771403	     -6.45647159	      2.87681523	     53.03828840	      0.92569276	     14.32913893	     -9.94467335	     -7.44363884	    -13.62404658	      1.47851870	     -8.40007985	     51.33821087	    -25.43648842	     14.26931058	    114.65438301	     99.40530144	     36.74940092	    -23.38646022	      6.81386788	    126.07782718	     76.74366187
      2.80000000	    -13.01409221	     -2.36802529	     -1.97315814	     -0.22412295	      0.88938273	     -0.57717024	     39.84337039	     -1.89395959	     -0.70678769	     47.70496020	      0.83260863	      5.35066137	    -20.31878816	     -7.44646840	     40.82617591	     -6.52467696	      2.42523669	     47.93601741	      0.83664133	     10.24070060	    -10.77794000	     -7.44646840	    -11.76470380	      1.44431872	     -7.66080958	     54.40773701	    -27.18488443	     15.13528980	    119.23017678	     98.57847078	     39.38164127	    -23.53785290	      8.96939807	    129.22438515	     77.95131480
      2.81000000	    -12.48619453	     -2.25922674	     -2.02488225	     -0.21753178	      0.90953634	     -0.57740354	     36.20145983	     -2.13879907	     -1.15599091	     42.31736482	      0.73857735	      1.68409911	    -18.75843254	     -7.46153744	     37.04537143	     -6.56236684	      1.71043731	     42.31300427	      0.73850124	      6.25364239	     -9.85872438	     -7.46153744	    -10.29285337	      1.34853139	     -6.73551903	     56.91315845	    -29.12509744	     15.89107190	    124.10458803	     94.12678988	     41.77519838	    -23.42172009	     10.83878303	    131.13654451	     84.54547836
